<svg xmlns="http://www.w3.org/2000/svg" xmlns:xlink="http://www.w3.org/1999/xlink" version="1.1" x="0px" y="0px" viewBox="0 0 69 86.25" style="enable-background:new 0 0 69 69;" xml:space="preserve"><g><path d="M40.5689,3.32121c-0.01-0.01-0.01-0.01-0.02-0.01c-5.7-1.12-12.13-0.2-12.39,0.06c-13.28,2.68-23.72,13.81-25.22,27.54   c-0.01,0.06-0.02,0.13-0.02,0.19v0.01c-1.53,13.99,6.42,27.15,19.05,32.55c0.02,0.01,0.04,0.02,0.06,0.02   c3.93,1.7,8.13,2.55,12.48,2.55c17.44,0,31.75-14.14,31.76-31.72v-0.03C66.2689,19.03121,55.2189,6.16121,40.5689,3.32121z    M63.4489,25.69121c0.48,1.65,0.68,2.91,0.88,3.68l-5.3-3.87l1.88-5.82C62.2089,22.00121,62.9689,24.04121,63.4489,25.69121z    M40.6189,4.85121c7.87,1.62,14.86,6.38,19.26,13.14l-2.44,7.56l-10.34,3.35l-11.52-8.83v-11.03L40.6189,4.85121z    M46.0889,30.02121l-4.53,13.88h-14.22l-4.46-13.69l12.04-8.76L46.0889,30.02121z M38.6689,4.52121l-3.95,3.3l-4.5-3.28   C30.3889,4.54121,33.9489,3.86121,38.6689,4.52121z M28.1589,4.90121l5.92,4.31v11l-12.21,8.88l-0.81-0.26l-9.76-3.18l-2.39-7.31   C9.0589,18.18121,14.9389,7.71121,28.1589,4.90121z M7.8889,20.06121l1.86,5.7l-5.09,3.69   C5.4789,24.42121,7.2189,21.57121,7.8889,20.06121z M11.1489,53.71121c-5.07-6.11-7.59-14.12-6.76-22.21l6.19-4.49l10.82,3.51   l4.54,13.95l-6.73,9.27L11.1489,53.71121z M12.4489,55.21121l6.51,0.02l2.06,6.34   C16.1189,59.14121,13.6789,56.30121,12.4489,55.21121z M34.5089,64.73121c-4.05,0-7.97-0.78-11.64-2.33l-2.51-7.71l6.79-9.29h14.52   l6.85,9.42l-2.48,7.62C45.0489,62.74121,40.9489,64.73121,34.5089,64.73121z M51.3489,59.59121c-1.53,1-2.75,1.59-3.47,2.03   l2.13-6.52l6.63,0.01C54.7089,57.18121,52.8689,58.59121,51.3489,59.59121z M57.9489,53.61121l-8.41-0.01l-6.6-9.08l4.62-14.19   l10.7-3.47l0.06-0.02l6.29,4.59c0.11,0.94,0.16,2.11,0.16,3.05C64.7689,46.35121,58.0089,53.51121,57.9489,53.61121z"/></g><text x="0" y="84" fill="#000000" font-size="5px" font-weight="bold" font-family="'Helvetica Neue', Helvetica, Arial-Unicode, Arial, Sans-serif">Created by Vectors Point</text><text x="0" y="89" fill="#000000" font-size="5px" font-weight="bold" font-family="'Helvetica Neue', Helvetica, Arial-Unicode, Arial, Sans-serif">from the Noun Project</text></svg>